<svg xmlns="http://www.w3.org/2000/svg" version="1.1" xmlns:xlink="http://www.w3.org/1999/xlink" xmlns:svgjs="http://svgjs.dev/svgjs" width="1000" height="623" viewBox="0 0 1000 623"><g transform="matrix(1,0,0,1,-0.6060606060606233,0.2522267206477409)"><svg viewBox="0 0 396 247" data-background-color="#ffffff" preserveAspectRatio="xMidYMid meet" height="623" width="1000" xmlns="http://www.w3.org/2000/svg" xmlns:xlink="http://www.w3.org/1999/xlink"><defs></defs><g id="tight-bounds" transform="matrix(1,0,0,1,0.2400000000000091,-0.09999999999999432)"><svg viewBox="0 0 395.52 247.2" height="247.2" width="395.52"><g><svg></svg></g><g><svg viewBox="0 0 395.52 247.2" height="247.2" width="395.52"><g transform="matrix(2.986746920771623, 0, 0, 2.986746920771623, 103.95822009931148, 0.9999999999999858)"><svg xmlns="http://www.w3.org/2000/svg" xmlns:xlink="http://www.w3.org/1999/xlink" version="1.1" x="0" y="0" viewBox="18.5939998626709 8.95199966430664 62.81200408935547 82.09600830078125" enable-background="new 0 0 100 100" xml:space="preserve" height="82.09600830078125" width="62.81200408935547" class="icon-none" data-fill-palette-color="accent" id="none"><path d="M77.446 73.226l0.001-46.275L59.448 8.952H18.594v78.137h21.18v3.959h41.632V73.226H77.446zM19.594 86.089V9.952h39.439l17.414 17.413v45.861H39.774v12.863H19.594z" fill="#33658a" data-fill-palette-color="accent"></path></svg></g><rect width="348.05760000000004" height="109.65680500969405" fill="#ffffff" y="68.77159749515297" x="23.731199999999973" data-fill-palette-color="quaternary"></rect><g transform="matrix(1,0,0,1,39.55199999999999,81.17082745068213)"><svg viewBox="0 0 316.416 84.85834509863574" height="84.85834509863574" width="316.416"><g><svg viewBox="0 0 317.99807999999996 85.2826368241289" height="84.85834509863574" width="316.416"><g><svg viewBox="0 0 317.99807999999996 85.2826368241289" height="85.2826368241289" width="317.99807999999996"><g><svg viewBox="0 0 317.99807999999996 85.2826368241289" height="85.2826368241289" width="317.99807999999996"><g><rect width="317.99807999999996" height="4.760188372227198" x="0" y="58.3923587811687" fill="#33658a" opacity="1" stroke-width="0" stroke="transparent" fill-opacity="1" class="rect-o-0" data-fill-palette-color="primary" rx="1%" id="o-0" data-palette-color="#33658a"></rect></g><g transform="matrix(1,0,0,1,0.7910399999999811,0)"><svg viewBox="0 0 316.416 52.784807033780645" height="52.784807033780645" width="316.416"><g transform="matrix(1,0,0,1,0,0)"><svg width="316.416" viewBox="1.6500000953674316 -35.650001525878906 216.0900115966797 36.05000305175781" height="52.784807033780645" data-palette-color="#33658a"><path d="M39.25-5.75L49.35-35.25 53.35-35.25 41.05 0 37.55 0 27.5-28.85 17.45 0 14 0 1.65-35.25 5.8-35.25 15.8-5.8 26.05-35.25 29.15-35.2 39.25-5.75ZM84.55-19.65L84.55-35.25 88.6-35.25 88.6 0 84.55 0 84.55-16.15 63.45-16.15 63.45 0 59.4 0 59.4-35.25 63.45-35.25 63.45-19.65 84.55-19.65ZM101.35 0L97.3 0 97.3-35.25 119.1-35.25 119.1-31.8 101.35-31.8 101.35-19.65 118.1-19.65 118.1-16.2 101.35-16.2 101.35 0ZM129.24 0L125.14 0 125.14-35.25 129.24-35.25 129.24 0ZM159.69 0L137.94 0 137.94-35.25 142.04-35.25 142.04-3.5 159.69-3.5 159.69 0ZM187.24 0L164.94 0 164.94-35.25 187.24-35.25 187.24-31.85 168.99-31.85 168.99-19.6 186.24-19.6 186.24-16.2 168.99-16.2 168.99-3.4 187.24-3.4 187.24 0ZM204.74 0.4Q196.49 0.4 191.54-4.05L191.54-4.05 193.14-7.2Q195.74-5 198.46-4.05 201.19-3.1 204.79-3.1L204.79-3.1Q209.04-3.1 211.34-4.75 213.64-6.4 213.64-9.4L213.64-9.4Q213.64-11.15 212.54-12.25 211.44-13.35 209.64-14 207.84-14.65 204.79-15.35L204.79-15.35Q200.69-16.3 198.06-17.35 195.44-18.4 193.81-20.35 192.19-22.3 192.19-25.45L192.19-25.45Q192.19-28.45 193.76-30.78 195.34-33.1 198.26-34.38 201.19-35.65 205.04-35.65L205.04-35.65Q208.69-35.65 211.86-34.5 215.04-33.35 217.24-31.2L217.24-31.2 215.69-28.05Q213.19-30.2 210.61-31.18 208.04-32.15 205.04-32.15L205.04-32.15Q200.94-32.15 198.61-30.43 196.29-28.7 196.29-25.6L196.29-25.6Q196.29-22.95 198.34-21.6 200.39-20.25 204.54-19.3L204.54-19.3Q209.09-18.2 211.69-17.28 214.29-16.35 216.01-14.5 217.74-12.65 217.74-9.55L217.74-9.55Q217.74-6.55 216.16-4.3 214.59-2.05 211.64-0.83 208.69 0.4 204.74 0.4L204.74 0.4Z" opacity="1" transform="matrix(1,0,0,1,0,0)" fill="#33658a" class="undefined-text-0" data-fill-palette-color="primary" id="text-0"></path></svg></g></svg></g><g transform="matrix(1,0,0,1,0,68.76009890078396)"><svg viewBox="0 0 185.7678336 16.522537923344945" height="16.522537923344945" width="185.7678336"><g transform="matrix(1,0,0,1,0,0)"><svg width="185.7678336" viewBox="3.299999952316284 -39.5 545.25 48.5" height="16.522537923344945" data-palette-color="#f6ae2d"><path d="M16.05 0.55L16.05 0.55Q13.1 0.55 10.68-0.35 8.25-1.25 6.65-2.9L6.65-2.9 6.1 0 3.3 0 3.3-11.35 6.35-11.35Q6.65-6.6 8.75-4.4 10.85-2.2 15.1-2.2L15.1-2.2Q18.65-2.2 20.45-3.58 22.25-4.95 22.25-7.65L22.25-7.65Q22.25-9.8 21.18-11.25 20.1-12.7 18.07-13.85 16.05-15 13.25-16.1L13.25-16.1Q10.1-17.4 7.9-18.68 5.7-19.95 4.58-21.78 3.45-23.6 3.45-26.5L3.45-26.5Q3.45-31.25 6.43-33.9 9.4-36.55 14.4-36.55L14.4-36.55Q19.35-36.55 22.45-33.75L22.45-33.75 22.85-36 25.65-36 25.65-24.65 22.8-24.65Q22.8-29.45 21-31.65 19.2-33.85 15.35-33.85L15.35-33.85Q8.5-33.85 8.5-27.6L8.5-27.6Q8.5-25.95 9.1-24.88 9.7-23.8 11.28-22.9 12.85-22 15.75-20.75L15.75-20.75Q19.9-19 22.45-17.35 25-15.7 26.15-13.78 27.3-11.85 27.3-9.2L27.3-9.2Q27.3-6.15 25.88-3.95 24.45-1.75 21.93-0.6 19.4 0.55 16.05 0.55ZM56.75-13.75L56.75-13.75Q56.75-10.5 55.77-7.58 54.8-4.65 53.05-2.75L53.05-2.75Q51.55-1.1 49.35-0.3 47.15 0.5 44.35 0.5L44.35 0.5Q41.6 0.5 39.45-0.28 37.3-1.05 35.8-2.65L35.8-2.65Q34.1-4.5 33.17-7.23 32.25-9.95 32.25-13.15L32.25-13.15Q32.25-16.4 33.2-19.38 34.15-22.35 35.95-24.25L35.95-24.25Q37.55-25.95 39.67-26.73 41.8-27.5 44.55-27.5L44.55-27.5Q47.3-27.5 49.5-26.73 51.7-25.95 53.2-24.35L53.2-24.35Q54.95-22.5 55.85-19.73 56.75-16.95 56.75-13.75ZM37.6-13.7L37.6-13.7Q37.6-10.65 38.07-8.43 38.55-6.2 39.4-4.75L39.4-4.75Q40.25-3.5 41.42-2.8 42.6-2.1 44.5-2.1L44.5-2.1Q47.95-2.1 49.65-4.45L49.65-4.45Q50.55-5.75 50.97-8.05 51.4-10.35 51.4-13.35L51.4-13.35Q51.4-16.35 50.92-18.6 50.45-20.85 49.6-22.25L49.6-22.25Q48.8-23.55 47.57-24.23 46.35-24.9 44.45-24.9L44.45-24.9Q40.95-24.9 39.4-22.6L39.4-22.6Q37.6-19.8 37.6-13.7ZM64.8-24.5L59.95-24.5 59.95-26.3 64.8-27 64.8-27.5Q64.8-33.25 67.3-36.38 69.8-39.5 74.05-39.5L74.05-39.5Q77-39.5 78.77-38.08 80.55-36.65 80.55-34.45L80.55-34.45Q80.55-33.05 79.84-32.33 79.15-31.6 77.95-31.6L77.95-31.6Q76.8-31.6 76.09-32.25 75.4-32.9 75.4-34.1L75.4-34.1Q75.4-35.4 76.2-36.7L76.2-36.7Q75.34-37.6 73.9-37.6L73.9-37.6Q72.75-37.6 71.9-37.1L71.9-37.1Q70.8-36.45 70.32-35.25 69.84-34.05 69.75-32.58 69.65-31.1 69.65-29.5L69.65-29.5 69.65-27 76.05-27 76.05-24.5 69.65-24.5 69.65-3 75.05-2.05 75.05 0 60.95 0 60.95-2.05 64.8-3 64.8-24.5ZM82.49-24.5L77.64-24.5 77.64-26.3 82.49-27 83.14-33.3 87.34-33.9 87.34-27 93.74-27 93.74-24.5 87.34-24.5 87.34-6.65Q87.34-4.95 87.39-4.33 87.44-3.7 87.59-3.3L87.59-3.3Q87.74-2.95 88.14-2.83 88.54-2.7 89.44-2.7L89.44-2.7 92.94-2.7 92.94-1.25Q90.54-0.35 88.72 0.08 86.89 0.5 85.79 0.5L85.79 0.5Q83.54 0.5 82.89-1.35L82.89-1.35Q82.69-1.95 82.59-2.9 82.49-3.85 82.49-5.7L82.49-5.7 82.49-24.5ZM106.09-24.95L102.64-24 107.79-6 108.39-3.05 108.64-3.05 109.24-6 115.09-27.5 118.69-27.5 124.74-6 125.34-3.05 125.54-3.05 126.14-6 131.14-24 127.89-24.95 127.89-27 137.39-27 137.39-24.95 134.69-24 127.24 0.5 122.09 0.5 116.14-19 110.34 0.5 105.19 0.5 97.54-24 94.89-24.95 94.89-27 106.09-27 106.09-24.95ZM139.54-5.85L139.54-5.85Q139.54-9.75 143.19-12 146.84-14.25 155.29-15.5L155.29-15.5Q155.09-18.45 154.74-20.1 154.39-21.75 153.84-22.75L153.84-22.75Q153.14-24.05 151.89-24.68 150.64-25.3 149.19-25.3L149.19-25.3Q147.79-25.3 146.66-24.8 145.54-24.3 145.14-23.45L145.14-23.45Q145.84-22.95 146.16-22.15 146.49-21.35 146.49-20.65L146.49-20.65Q146.49-19.4 145.66-18.68 144.84-17.95 143.64-17.95L143.64-17.95Q142.44-17.95 141.66-18.75 140.89-19.55 140.89-21L140.89-21Q140.89-23.1 142.34-24.55 143.79-26 146.01-26.75 148.24-27.5 150.49-27.5L150.49-27.5Q152.54-27.5 154.26-26.88 155.99-26.25 157.19-25.05L157.19-25.05Q160.29-21.95 160.29-14.05L160.29-14.05 160.29-6.8Q160.29-4.35 160.61-3.4 160.94-2.45 162.04-2.45L162.04-2.45 164.29-2.45 164.29-0.95Q160.69 0.5 158.69 0.5L158.69 0.5Q157.14 0.5 156.61-0.63 156.09-1.75 156.09-4.95L156.09-4.95 155.89-4.95Q154.34-2.4 151.79-0.95 149.24 0.5 146.29 0.5L146.29 0.5Q143.14 0.5 141.34-1.2 139.54-2.9 139.54-5.85ZM148.39-2.4L148.39-2.4Q149.79-2.4 151.31-3.13 152.84-3.85 153.89-5.15L153.89-5.15Q154.69-6.15 155.06-7.53 155.44-8.9 155.44-10.75L155.44-10.75Q155.44-11.6 155.39-12.43 155.34-13.25 155.24-14L155.24-14Q151.19-13.2 148.89-12.28 146.59-11.35 145.64-10.08 144.69-8.8 144.69-6.9L144.69-6.9Q144.69-4.75 145.66-3.58 146.64-2.4 148.39-2.4ZM181.34-24.1L181.34-24.1Q181.14-24.25 180.86-24.33 180.59-24.4 180.34-24.4L180.34-24.4Q179.74-24.4 179.04-23.85 178.34-23.3 177.69-22.38 177.04-21.45 176.49-20.25L176.49-20.25Q175.79-18.55 175.39-16.53 174.99-14.5 174.99-12.35L174.99-12.35 174.99-3 180.39-2.05 180.39 0 166.29 0 166.29-2.05 170.14-3 170.14-24 166.29-24.95 166.29-27 173.49-27 174.59-20.4 174.79-20.4Q175.94-23.8 177.89-25.65 179.84-27.5 182.19-27.5L182.19-27.5Q184.14-27.5 185.44-26.28 186.74-25.05 186.74-23L186.74-23Q186.74-21.5 185.96-20.63 185.19-19.75 183.89-19.75L183.89-19.75Q182.59-19.75 181.84-20.58 181.09-21.4 181.09-22.75L181.09-22.75Q181.09-23.05 181.14-23.33 181.19-23.6 181.34-24.1ZM211.98-13.2L211.98-13.2 194.53-13.2Q194.53-9.55 195.53-7.15L195.53-7.15Q196.53-4.85 198.38-3.85 200.23-2.85 202.38-2.85L202.38-2.85Q204.73-2.85 206.68-3.83 208.63-4.8 210.18-6.5L210.18-6.5 211.78-5.3Q210.03-2.9 207.53-1.2 205.03 0.5 201.08 0.5L201.08 0.5Q197.63 0.5 194.98-0.98 192.33-2.45 190.93-5.3L190.93-5.3Q190.18-6.85 189.83-8.75 189.48-10.65 189.48-12.8L189.48-12.8Q189.48-19.8 192.71-23.65 195.93-27.5 201.48-27.5L201.48-27.5Q206.58-27.5 209.36-24.33 212.13-21.15 212.13-15.55L212.13-15.55Q212.13-15.05 212.11-14.63 212.08-14.2 211.98-13.2ZM201.18-24.8L201.18-24.8Q195.18-24.8 194.58-15.65L194.58-15.65 207.08-15.65 207.08-17.3Q207.08-20.9 205.56-22.85 204.03-24.8 201.18-24.8ZM238.63-33L238.63-3 246.38-3Q249.08-3 251-3.8 252.93-4.6 254.18-6.3L254.18-6.3Q255.58-8.05 256.25-10.9 256.93-13.75 256.93-17.7L256.93-17.7Q256.93-25.5 254.18-29.3L254.18-29.3Q252.88-31.2 250.83-32.1 248.78-33 245.88-33L245.88-33 238.63-33ZM229.43-33.85L229.43-36 246.23-36Q253.68-36 257.83-31.8L257.83-31.8Q260.18-29.4 261.43-25.9 262.68-22.4 262.68-18.4L262.68-18.4Q262.68-14.2 261.35-10.53 260.03-6.85 257.68-4.35L257.68-4.35Q253.53 0 245.78 0L245.78 0 229.43 0 229.43-2.15 233.63-3.2 233.63-32.8 229.43-33.85ZM290.18-13.2L290.18-13.2 272.73-13.2Q272.73-9.55 273.73-7.15L273.73-7.15Q274.73-4.85 276.58-3.85 278.43-2.85 280.58-2.85L280.58-2.85Q282.93-2.85 284.88-3.83 286.83-4.8 288.38-6.5L288.38-6.5 289.98-5.3Q288.23-2.9 285.73-1.2 283.23 0.5 279.28 0.5L279.28 0.5Q275.83 0.5 273.18-0.98 270.53-2.45 269.13-5.3L269.13-5.3Q268.38-6.85 268.03-8.75 267.68-10.65 267.68-12.8L267.68-12.8Q267.68-19.8 270.9-23.65 274.13-27.5 279.68-27.5L279.68-27.5Q284.78-27.5 287.55-24.33 290.33-21.15 290.33-15.55L290.33-15.55Q290.33-15.05 290.3-14.63 290.28-14.2 290.18-13.2ZM279.38-24.8L279.38-24.8Q273.38-24.8 272.78-15.65L272.78-15.65 285.28-15.65 285.28-17.3Q285.28-20.9 283.75-22.85 282.23-24.8 279.38-24.8ZM318.17-24L309.32 0.5 304.17 0.5 295.27-24 292.47-24.95 292.47-27 303.67-27 303.67-24.95 300.37-24 307.42-3.05 307.62-3.05 314.67-24 311.57-24.95 311.57-27 321.07-27 321.07-24.95 318.17-24ZM345.52-13.2L345.52-13.2 328.07-13.2Q328.07-9.55 329.07-7.15L329.07-7.15Q330.07-4.85 331.92-3.85 333.77-2.85 335.92-2.85L335.92-2.85Q338.27-2.85 340.22-3.83 342.17-4.8 343.72-6.5L343.72-6.5 345.32-5.3Q343.57-2.9 341.07-1.2 338.57 0.5 334.62 0.5L334.62 0.5Q331.17 0.5 328.52-0.98 325.87-2.45 324.47-5.3L324.47-5.3Q323.72-6.85 323.37-8.75 323.02-10.65 323.02-12.8L323.02-12.8Q323.02-19.8 326.25-23.65 329.47-27.5 335.02-27.5L335.02-27.5Q340.12-27.5 342.9-24.33 345.67-21.15 345.67-15.55L345.67-15.55Q345.67-15.05 345.65-14.63 345.62-14.2 345.52-13.2ZM334.72-24.8L334.72-24.8Q328.72-24.8 328.12-15.65L328.12-15.65 340.62-15.65 340.62-17.3Q340.62-20.9 339.1-22.85 337.57-24.8 334.72-24.8ZM349.27-2.05L353.12-3 353.12-36 349.27-36.95 349.27-39 357.97-39 357.97-3 361.82-2.05 361.82 0 349.27 0 349.27-2.05ZM390.06-13.75L390.06-13.75Q390.06-10.5 389.09-7.58 388.12-4.65 386.37-2.75L386.37-2.75Q384.87-1.1 382.66-0.3 380.46 0.5 377.66 0.5L377.66 0.5Q374.91 0.5 372.76-0.28 370.62-1.05 369.12-2.65L369.12-2.65Q367.41-4.5 366.49-7.23 365.56-9.95 365.56-13.15L365.56-13.15Q365.56-16.4 366.51-19.38 367.46-22.35 369.26-24.25L369.26-24.25Q370.87-25.95 372.99-26.73 375.12-27.5 377.87-27.5L377.87-27.5Q380.62-27.5 382.81-26.73 385.01-25.95 386.51-24.35L386.51-24.35Q388.26-22.5 389.16-19.73 390.06-16.95 390.06-13.75ZM370.91-13.7L370.91-13.7Q370.91-10.65 371.39-8.43 371.87-6.2 372.71-4.75L372.71-4.75Q373.56-3.5 374.74-2.8 375.91-2.1 377.81-2.1L377.81-2.1Q381.26-2.1 382.96-4.45L382.96-4.45Q383.87-5.75 384.29-8.05 384.71-10.35 384.71-13.35L384.71-13.35Q384.71-16.35 384.24-18.6 383.76-20.85 382.91-22.25L382.91-22.25Q382.12-23.55 380.89-24.23 379.66-24.9 377.76-24.9L377.76-24.9Q374.26-24.9 372.71-22.6L372.71-22.6Q370.91-19.8 370.91-13.7ZM402.31-3.7L402.31 6 407.16 6.95 407.16 9 393.61 9 393.61 6.95 397.46 6 397.46-24 393.61-24.95 393.61-27 400.81-27 401.56-23.15Q403.16-25.65 405.19-26.58 407.21-27.5 409.76-27.5L409.76-27.5Q412.31-27.5 414.39-26.75 416.46-26 417.76-24.35L417.76-24.35Q419.26-22.45 420.14-19.78 421.01-17.1 421.01-14L421.01-14Q421.01-10.8 420.04-7.98 419.06-5.15 417.41-3.25L417.41-3.25Q414.61 0 409.36 0L409.36 0Q407.21 0 405.49-0.83 403.76-1.65 402.31-3.7L402.31-3.7ZM402.26-13.95L402.26-13.95Q402.26-11 402.71-8.8 403.16-6.6 404.01-5.25L404.01-5.25Q404.81-4 405.99-3.3 407.16-2.6 409.01-2.6L409.01-2.6Q410.71-2.6 411.99-3.23 413.26-3.85 414.06-4.95L414.06-4.95Q414.96-6.2 415.36-8.45 415.76-10.7 415.76-13.6L415.76-13.6Q415.76-16.55 415.31-18.7 414.86-20.85 414.01-22.25L414.01-22.25Q413.21-23.55 412.04-24.23 410.86-24.9 408.96-24.9L408.96-24.9Q407.26-24.9 405.99-24.33 404.71-23.75 404.01-22.6L404.01-22.6Q403.21-21.25 402.74-19.07 402.26-16.9 402.26-13.95ZM425.11-2.05L428.96-3 428.96-24 425.11-24.95 425.11-27 432.31-27 433.41-22 433.61-22Q435.06-24.5 437.49-26 439.91-27.5 442.66-27.5L442.66-27.5Q444.71-27.5 446.31-26.73 447.91-25.95 448.66-24.8L448.66-24.8Q449.46-23.55 449.96-21.5L449.96-21.5Q451.56-24.3 454.11-25.9 456.66-27.5 459.56-27.5L459.56-27.5Q461.56-27.5 463.16-26.73 464.76-25.95 465.61-24.6L465.61-24.6Q466.21-23.65 466.56-22.15 466.91-20.65 467.06-18.28 467.21-15.9 467.21-12.25L467.21-12.25 467.21-3 471.06-2.05 471.06 0 459.01 0 459.01-2.05 462.36-3 462.36-14.15Q462.36-17.4 462.19-19 462.01-20.6 461.56-21.5L461.56-21.5Q460.96-22.7 459.88-23.33 458.81-23.95 457.36-23.95L457.36-23.95Q456.11-23.95 454.91-23.45 453.71-22.95 452.76-22.1L452.76-22.1Q451.66-21.1 451.13-19.75 450.61-18.4 450.51-16.35L450.51-16.35 450.51-3 453.86-2.05 453.86 0 442.31 0 442.31-2.05 445.66-3 445.66-14.15Q445.66-17.4 445.49-19 445.31-20.6 444.86-21.5L444.86-21.5Q444.26-22.7 443.19-23.33 442.11-23.95 440.66-23.95L440.66-23.95Q439.41-23.95 438.21-23.45 437.01-22.95 436.06-22.1L436.06-22.1Q434.96-21.1 434.44-19.75 433.91-18.4 433.81-16.35L433.81-16.35 433.81-3 437.16-2.05 437.16 0 425.11 0 425.11-2.05ZM496.91-13.2L496.91-13.2 479.46-13.2Q479.46-9.55 480.46-7.15L480.46-7.15Q481.46-4.85 483.31-3.85 485.16-2.85 487.31-2.85L487.31-2.85Q489.66-2.85 491.61-3.83 493.56-4.8 495.11-6.5L495.11-6.5 496.71-5.3Q494.96-2.9 492.46-1.2 489.96 0.5 486.01 0.5L486.01 0.5Q482.56 0.5 479.91-0.98 477.26-2.45 475.86-5.3L475.86-5.3Q475.11-6.85 474.76-8.75 474.41-10.65 474.41-12.8L474.41-12.8Q474.41-19.8 477.63-23.65 480.86-27.5 486.41-27.5L486.41-27.5Q491.51-27.5 494.28-24.33 497.06-21.15 497.06-15.55L497.06-15.55Q497.06-15.05 497.03-14.63 497.01-14.2 496.91-13.2ZM486.11-24.8L486.11-24.8Q480.11-24.8 479.51-15.65L479.51-15.65 492.01-15.65 492.01-17.3Q492.01-20.9 490.48-22.85 488.96-24.8 486.11-24.8ZM501.06-2.05L504.9-3 504.9-24 501.06-24.95 501.06-27 508.25-27 509.36-22 509.56-22Q511.06-24.55 513.61-26.03 516.15-27.5 519.05-27.5L519.05-27.5Q523.21-27.5 525.21-24.8L525.21-24.8Q526.21-23.4 526.63-20.88 527.05-18.35 527.05-14.05L527.05-14.05 527.05-3 530.9-2.05 530.9 0 518.86 0 518.86-2.05 522.21-3 522.21-14.15Q522.21-17.4 522.03-19 521.86-20.6 521.4-21.5L521.4-21.5Q520.8-22.7 519.68-23.33 518.55-23.95 517-23.95L517-23.95Q514.11-23.95 512-22.1L512-22.1Q509.95-20.25 509.75-16.35L509.75-16.35 509.75-3 513.11-2.05 513.11 0 501.06 0 501.06-2.05ZM537.3-24.5L532.45-24.5 532.45-26.3 537.3-27 537.95-33.3 542.15-33.9 542.15-27 548.55-27 548.55-24.5 542.15-24.5 542.15-6.65Q542.15-4.95 542.2-4.33 542.25-3.7 542.4-3.3L542.4-3.3Q542.55-2.95 542.95-2.83 543.35-2.7 544.25-2.7L544.25-2.7 547.75-2.7 547.75-1.25Q545.35-0.35 543.53 0.08 541.7 0.5 540.6 0.5L540.6 0.5Q538.35 0.5 537.7-1.35L537.7-1.35Q537.5-1.95 537.4-2.9 537.3-3.85 537.3-5.7L537.3-5.7 537.3-24.5Z" opacity="1" transform="matrix(1,0,0,1,0,0)" fill="#f6ae2d" class="undefined-text-1" data-fill-palette-color="secondary" id="text-1"></path></svg></g></svg></g></svg></g></svg></g></svg></g></svg></g></svg></g></svg><rect width="395.52" height="247.2" fill="none" stroke="none" visibility="hidden"></rect></g></svg></g></svg>